PLAYBOY PLAYMATE OF THE YEAR 2000 BONUS: BROOKE RICHARDS
 
http://leetleech.org/images/69557149694295319566.jpg

Details

Title: Playboy Playmate Of The Year
Country: USA
Year: 1999
Genre: Erotic, Softcore
Release Date: 19 September 2000
Cast: Brooke Richards

Plot

Brooke Richards, Miss Dec 1999: If you missed this Carolina cutie in Playboy's Sexy Girls Next Door and Girlfriends Newsstand Specials, they you're overdue for an introduction. This brown-eyed bombshell is packing an abundance of ambition and beauty and we're sure you'll enjoy every moment of this intimate video close-up.

Mediainfo

General
Complete name                    : Playboy - Playmate Of The Year 2000 Playmate Bonus - Brooke Richards.mpg
Format                           : MPEG-PS
File size                        : 397 MiB
Duration                         : 15mn 27s
Overall bit rate                 : 3 586 Kbps
Writing library                  : encoded by TMPGEnc b12j

Video
ID                               : 224 (0xE0)
Format                           : MPEG Video
Format version                   : Version 1
Format settings, BVOP            : Yes
Format settings, Matrix          : Default
Duration                         : 15mn 27s
Bit rate mode                    : Variable
Bit rate                         : 3 323 Kbps
Width                            : 704 pixels
Height                           : 480 pixels
Display aspect ratio             : 4:3
Frame rate                       : 29.970 fps
Standard                         : NTSC
Color space                      : YUV
Bit depth                        : 8 bits
Scan type                        : Progressive
Compression mode                 : Lossy
Bits/(Pixel*Frame)               : 0.328
Stream size                      : 368 MiB (93%)
Writing library                  : TMPGEnc b12j

Audio
ID                               : 192 (0xC0)
Format                           : MPEG Audio
Format version                   : Version 1
Format profile                   : Layer 2
Duration                         : 15mn 27s
Bit rate mode                    : Constant
Bit rate                         : 192 Kbps
Channel(s)                       : 2 channels
Sampling rate                    : 48.0 KHz
Compression mode                 : Lossy
Stream size                      : 21.2 MiB (5%)[/i]

Screenshots
 
http://leetleech.org/images/41717455002796768959.png 
http://leetleech.org/images/85191689428524392627.png